<?xml version="1.0" encoding="UTF-8"?>
<svg width="42px" height="42px" viewBox="0 0 42 42" version="1.1" xmlns="http://www.w3.org/2000/svg" xmlns:xlink="http://www.w3.org/1999/xlink">
    <title>Scale  Ruler</title>
    <g id="Estimates" stroke="none" stroke-width="1" fill="none" fill-rule="evenodd">
        <g id="Artboard-Copy-3" transform="translate(-792.000000, -29.000000)" fill="currentColor">
            <g id="step" transform="translate(792.000000, 0.000000)">
                <g id="Scale--Ruler" transform="translate(21.500000, 50.500000) rotate(-45.000000) translate(-21.500000, -50.500000) translate(7.000000, 36.000000)">
                    <path d="M20.4782182,3.02277545 C19.9633364,2.50798591 19.1287955,2.50798591 18.6140455,3.02277545 L3.02277545,18.6140455 C2.50798591,19.1287955 2.50798591,19.9634682 3.02277545,20.4782182 L8.52166318,25.9770136 C9.03643955,26.4918955 9.87107273,26.4918955 10.3858491,25.9770136 L12.6356955,23.7271409 L10.9314577,22.0229955 C10.4166814,21.5081136 10.4166814,20.6735727 10.9314577,20.1586909 C11.4462473,19.6439409 12.2808409,19.6439409 12.7955909,20.1586909 L14.4998682,21.8629682 L17.2493318,19.1135045 L16.2041455,18.0683182 C15.6893955,17.5535682 15.6893955,16.7190273 16.2041455,16.2041455 C16.7190273,15.6893955 17.5535682,15.6893955 18.0683182,16.2041455 L19.1135045,17.2493318 L21.8629682,14.4998682 L20.1586909,12.7955909 C19.6439409,12.2808409 19.6439409,11.4462473 20.1586909,10.9314709 C20.6735727,10.4166814 21.5081136,10.4166814 22.0228636,10.9314709 L23.7271409,12.6356955 L25.9770136,10.3858491 C26.4918955,9.87107273 26.4918955,9.03645273 25.9770136,8.52166318 L20.4782182,3.02277545 Z M16.7497409,1.15857636 C18.2941227,-0.385761955 20.7980091,-0.385767227 22.3423909,1.15857636 L27.8413182,6.65747727 C29.3855682,8.20181955 29.3855682,10.7056927 27.8413182,12.2499955 L12.2499955,27.8413182 C10.7056927,29.3855682 8.20181955,29.3855682 6.65747727,27.8413182 L1.15857636,22.3423909 C-0.385767227,20.7980091 -0.385761955,18.2941227 1.15857636,16.7497409 L16.7497409,1.15857636 Z" id="Shape"></path>
                </g>
            </g>
        </g>
    </g>
</svg>