<?xml version="1.0" encoding="UTF-8"?>
<svg width="20px" height="28px" viewBox="0 0 20 28" version="1.1" xmlns="http://www.w3.org/2000/svg" xmlns:xlink="http://www.w3.org/1999/xlink">
    <title>Paint</title>
    <g id="Estimates" stroke="none" stroke-width="1" fill="none" fill-rule="evenodd" stroke-linecap="round" stroke-linejoin="round">
        <g id="Artboard-Copy-3" transform="translate(-1077.000000, -36.000000)" stroke="currentColor" stroke-width="2">
            <g id="step" transform="translate(1078.000000, 0.000000)">
                <g id="Paint" transform="translate(0.000000, 37.000000)">
                    <path d="M14,26 L4,26 C1.8,26 0,24.2 0,22 L0,10 L18,10 L18,22 C18,24.2 16.2,26 14,26 Z" id="Path"></path>
                    <path d="M15,10 L15,6 C15,2.7 12.3,0 9,0 L9,0 C5.7,0 3,2.7 3,6 L3,15" id="Path"></path>
                    <path d="M18,13 L14.5,13 C13.7,13 13,13.7 13,14.5 L13,17.5 C13,18.3 12.3,19 11.5,19 L11.5,19 C10.7,19 10,18.3 10,17.5 L10,10" id="Path"></path>
                </g>
            </g>
        </g>
    </g>
</svg>