<?xml version="1.0" encoding="UTF-8"?>
<svg width="31px" height="30px" viewBox="0 0 35 34" version="1.1" xmlns="http://www.w3.org/2000/svg" xmlns:xlink="http://www.w3.org/1999/xlink">
    <title>Delete Icon CTA</title>
    <g id="Estimates" stroke="none" stroke-width="1" fill="none" fill-rule="evenodd">
        <g id="Web-Default" transform="translate(-1438.000000, -686.000000)">
            <g id="Selecting-Rooms" transform="translate(-1.000000, -5.000000)">
                <g id="modal-content" transform="translate(0.000000, 100.000000)">
                    <g id="Option-headers" transform="translate(1056.000000, 86.000000)">
                        <g id="option" transform="translate(296.000000, 0.000000)">
                            <g id="Group" transform="translate(0.000000, 73.000000)">
                                <g id="Group" transform="translate(85.500000, 430.000000)">
                                    <g id="Delete-CTA" transform="translate(2.000000, 2.000000)">
                                        <rect id="Rectangle-Copy" stroke="currentColor" stroke-width="1.5" x="0.75" y="0.75" width="32.5" height="32.5" rx="5"></rect>
                                        <g id="20942441721582806949" transform="translate(9.000000, 7.000000)" fill="currentColor">
                                            <path d="M7.2,1.6 C6.75816,1.6 6.4,1.958176 6.4,2.4 L6.4,3.2 L9.6,3.2 L9.6,2.4 C9.6,1.958176 9.24184,1.6 8.8,1.6 L7.2,1.6 Z M11.2,3.2 L11.2,2.4 C11.2,1.07452 10.12552,0 8.8,0 L7.2,0 C5.87452,0 4.8,1.07452 4.8,2.4 L4.8,3.2 L0.8,3.2 C0.358176,3.2 0,3.558176 0,4 C0,4.441824 0.358176,4.8 0.8,4.8 L0.883968,4.8 L2.246744,17.06504 C2.3818,18.28048 3.409152,19.2 4.632072,19.2 L11.36792,19.2 C12.59088,19.2 13.61824,18.28048 13.75328,17.06504 L15.116,4.8 L15.2,4.8 C15.64184,4.8 16,4.441824 16,4 C16,3.558176 15.64184,3.2 15.2,3.2 L11.2,3.2 Z M13.50616,4.8 L2.493808,4.8 L3.83696,16.88832 C3.881976,17.29352 4.224432,17.6 4.632072,17.6 L11.36792,17.6 C11.7756,17.6 12.118,17.29352 12.16304,16.88832 L13.50616,4.8 Z M6.4,7.2 C6.84184,7.2 7.2,7.558168 7.2,8 L7.2,14.4 C7.2,14.84184 6.84184,15.2 6.4,15.2 C5.958176,15.2 5.6,14.84184 5.6,14.4 L5.6,8 C5.6,7.558168 5.958176,7.2 6.4,7.2 Z M9.6,7.2 C10.04184,7.2 10.4,7.558168 10.4,8 L10.4,14.4 C10.4,14.84184 10.04184,15.2 9.6,15.2 C9.15816,15.2 8.8,14.84184 8.8,14.4 L8.8,8 C8.8,7.558168 9.15816,7.2 9.6,7.2 Z" id="Shape"></path>
                                        </g>
                                    </g>
                                </g>
                            </g>
                        </g>
                    </g>
                </g>
            </g>
        </g>
    </g>
</svg>