<?xml version="1.0" encoding="UTF-8"?>
<svg width="34px" height="40px" viewBox="0 0 34 40" version="1.1" xmlns="http://www.w3.org/2000/svg" xmlns:xlink="http://www.w3.org/1999/xlink">
    <g id="Estimates" stroke="none" stroke-width="1" fill="none" fill-rule="evenodd">
        <g id="Artboard-Copy-3" transform="translate(-34.000000, -30.000000)" fill="currentColor" fill-rule="nonzero">
            <g id="step" transform="translate(34.000000, 0.000000)">
                <g id="bed" transform="translate(0.000000, 30.000000)">
                    <path d="M29,12.863 L29,4 L29,3 L29,0 L27,0 L27,3 L7,3 L7,0 L5,0 L5,3 L5,4 L5,12.863 L0.036,30.732 L0,37 L4,37 L4,40 L6,40 L6,37 L28,37 L28,40 L30,40 L30,37 L34,37 L34,31 L29,12.863 Z M7,5 L27,5 L27,12 L24,12 L24,8.381 L23.447,8.106 C23.356,8.061 21.188,7 17,7 C12.812,7 10.644,8.061 10.553,8.105 L10,8.381 L10,12 L6.969,12 L7,5 Z M22,9.684 L22,12 L22,14 L22,14.314 C21.194,14.58 19.521,15 17,15 C14.478,15 12.804,14.578 12,14.314 L12,14 L12,12 L12,9.686 C12.806,9.42 14.479,9 17,9 C19.522,9 21.196,9.42 22,9.684 Z M6.76,14 L10,14 L10,15.617 L10.553,15.894 C10.644,15.939 12.812,17 17,17 C21.188,17 23.356,15.939 23.447,15.895 L24,15.617 L24,14 L27.276,14 L28.102,17 L17,17 L5.927,17 L6.76,14 Z M5.371,19 L28.654,19 L31.686,30 L2.315,30 L5.371,19 Z M32,35 L2,35 L2,32 L32,32 L32,35 Z" id="i-429"></path>
                </g>
            </g>
        </g>
    </g>
</svg>