<?xml version="1.0" encoding="UTF-8"?>
<svg width="26px" height="28px" viewBox="0 0 26 28" version="1.1" xmlns="http://www.w3.org/2000/svg" xmlns:xlink="http://www.w3.org/1999/xlink">
    <title>Paint  Roller</title>
    <g id="Estimates" stroke="none" stroke-width="1" fill="none" fill-rule="evenodd" stroke-linecap="round" stroke-linejoin="round">
        <g id="Artboard-Copy-3" transform="translate(-554.000000, -35.000000)" stroke="currentColor" stroke-width="2">
            <g id="step" transform="translate(555.000000, 0.000000)">
                <g id="Paint--Roller" transform="translate(0.000000, 36.000000)">
                    <line x1="22" y1="4" x2="24" y2="4" id="Path"></line>
                    <path d="M13,16 L13,13 C13,11.9 12.1,11 11,11 L3.5,11 C1.6,11 0,9.4 0,7.5 L0,7.5 C0,5.6 1.6,4 3.5,4 L4,4 L4,6 C4,7.1 4.9,8 6,8 L20,8 C21.1,8 22,7.1 22,6 L22,2 C22,0.9 21.1,0 20,0 L6,0 C4.9,0 4,0.9 4,2 L4,4" id="Path"></path>
                    <path d="M13,26 L13,26 C11.4,26 10.1,24.6 10.3,23 L11,16 L13,16 L15,16 L15.7,23 C15.9,24.6 14.6,26 13,26 Z" id="Path"></path>
                </g>
            </g>
        </g>
    </g>
</svg>