<?xml version="1.0" encoding="UTF-8"?>
<svg width="28px" height="23px" viewBox="0 0 28 23" version="1.1" xmlns="http://www.w3.org/2000/svg" xmlns:xlink="http://www.w3.org/1999/xlink">
    <title>details  document</title>
    <g id="Estimates" stroke="none" stroke-width="1" fill="none" fill-rule="evenodd">
        <g id="Artboard-Copy-3" transform="translate(-1303.000000, -39.000000)" fill="currentColor" fill-rule="nonzero">
            <g id="Room-Details" transform="translate(-35.000000, -17.000000)">
                <g id="Heading" transform="translate(35.000000, 17.000000)">
                    <g id="step" transform="translate(1303.000000, 0.000000)">
                        <g id="details--document" transform="translate(0.000000, 39.000000)">
                            <path d="M9.8,11.2 L18.2,11.2 C18.9731986,11.2 19.6,10.5731986 19.6,9.8 L19.6,1.4 C19.6,0.62680135 18.9731986,0 18.2,0 L9.8,0 C9.02680135,0 8.4,0.62680135 8.4,1.4 L8.4,9.8 C8.4,10.5731986 9.02680135,11.2 9.8,11.2 Z M11.2,2.8 L16.8,2.8 L16.8,8.4 L11.2,8.4 L11.2,2.8 Z M26.6,8.4 L23.8,8.4 C23.0268014,8.4 22.4,9.02680135 22.4,9.8 C22.4,10.5731986 23.0268014,11.2 23.8,11.2 L26.6,11.2 C27.3731986,11.2 28,10.5731986 28,9.8 C28,9.02680135 27.3731986,8.4 26.6,8.4 Z M23.8,5.6 L26.6,5.6 C27.3731986,5.6 28,4.97319865 28,4.2 C28,3.42680135 27.3731986,2.8 26.6,2.8 L23.8,2.8 C23.0268014,2.8 22.4,3.42680135 22.4,4.2 C22.4,4.97319865 23.0268014,5.6 23.8,5.6 Z M1.4,5.6 L4.2,5.6 C4.97319865,5.6 5.6,4.97319865 5.6,4.2 C5.6,3.42680135 4.97319865,2.8 4.2,2.8 L1.4,2.8 C0.62680135,2.8 0,3.42680135 0,4.2 C0,4.97319865 0.62680135,5.6 1.4,5.6 Z M1.4,11.2 L4.2,11.2 C4.97319865,11.2 5.6,10.5731986 5.6,9.8 C5.6,9.02680135 4.97319865,8.4 4.2,8.4 L1.4,8.4 C0.62680135,8.4 0,9.02680135 0,9.8 C0,10.5731986 0.62680135,11.2 1.4,11.2 Z M26.6,14 L1.4,14 C0.62680135,14 0,14.6268014 0,15.4 C0,16.1731986 0.62680135,16.8 1.4,16.8 L26.6,16.8 C27.3731986,16.8 28,16.1731986 28,15.4 C28,14.6268014 27.3731986,14 26.6,14 Z M15.4,19.6 L1.4,19.6 C0.62680135,19.6 0,20.2268014 0,21 C0,21.7731986 0.62680135,22.4 1.4,22.4 L15.4,22.4 C16.1731986,22.4 16.8,21.7731986 16.8,21 C16.8,20.2268014 16.1731986,19.6 15.4,19.6 Z" id="Shape"></path>
                        </g>
                    </g>
                </g>
            </g>
        </g>
    </g>
</svg>